<?xml version="1.0" encoding="UTF-8" standalone="no"?>
<svg
   xmlns:sketchjs="https://sketch.io/dtd/"
   xmlns:dc="http://purl.org/dc/elements/1.1/"
   xmlns:cc="http://creativecommons.org/ns#"
   xmlns:rdf="http://www.w3.org/1999/02/22-rdf-syntax-ns#"
   xmlns:svg="http://www.w3.org/2000/svg"
   xmlns="http://www.w3.org/2000/svg"
   xmlns:sodipodi="http://sodipodi.sourceforge.net/DTD/sodipodi-0.dtd"
   xmlns:inkscape="http://www.inkscape.org/namespaces/inkscape"
   id="94c1f45f-2d92-458e-bbfe-f6c69da92e14"
   data-name="Layer 1"
   width="1034.95"
   height="831.61"
   viewBox="0 0 1034.95 831.61"
   version="1.1"
   sodipodi:docname="contact-img.svg">
  <metadata
     id="metadata6216">
    <rdf:RDF>
      <cc:Work
         rdf:about="">
        <dc:format>image/svg+xml</dc:format>
        <dc:type
           rdf:resource="http://purl.org/dc/dcmitype/StillImage" />
      </cc:Work>
    </rdf:RDF>
  </metadata>
  <sodipodi:namedview
     pagecolor="#ffffff"
     bordercolor="#666666"
     inkscape:document-rotation="0"
     borderopacity="1"
     objecttolerance="10"
     gridtolerance="10"
     guidetolerance="10"
     inkscape:pageopacity="0"
     inkscape:pageshadow="2"
     inkscape:window-width="1366"
     inkscape:window-height="792"
     id="namedview6214"
     showgrid="false"
     inkscape:zoom="0.86318544"
     inkscape:cx="525.14642"
     inkscape:cy="340.1724"
     inkscape:window-x="0"
     inkscape:window-y="23"
     inkscape:window-maximized="0"
     inkscape:current-layer="94c1f45f-2d92-458e-bbfe-f6c69da92e14"
     inkscape:snap-bbox="true"
     inkscape:bbox-nodes="true" />
  <defs
     id="defs6011">
    <inkscape:path-effect
       effect="bspline" />
    <linearGradient
       id="eb1b6581-0e6c-46f0-8ed9-49203ffc7122"
       x1="924.49"
       y1="836.62"
       x2="924.49"
       y2="217.05"
       gradientUnits="userSpaceOnUse">
      <stop
         offset="0"
         stop-color="gray"
         stop-opacity="0.25"
         id="stop6004" />
      <stop
         offset="0.54"
         stop-color="gray"
         stop-opacity="0.12"
         id="stop6006" />
      <stop
         offset="1"
         stop-color="gray"
         stop-opacity="0.1"
         id="stop6008" />
    </linearGradient>
  </defs>
  <title
     id="title6013">envelope</title>
  <path
     d="M683.84,129.27C617.49,127.36,554.3,109.52,494,90S373.84,48.89,309.08,38.55c-41.65-6.65-89.28-7.59-122.84,11C153.94,67.44,143.51,98.33,137.9,127c-4.23,21.56-6.71,44.26,4.86,64.44,8,14,22.29,25.79,32.15,39.21,34.3,46.71,10.06,104.3-27.12,149.9-17.44,21.39-37.67,41.8-51.13,64.57S77,494,88.75,517.2c11.67,23,39.48,40.31,69.61,52.48,61.19,24.7,133.3,31.77,203.61,35.78,155.64,8.86,312.12,5,468.18,1.18,57.75-1.42,115.76-2.86,172.58-10.3,31.55-4.13,64.12-10.68,87-26.5,29.08-20.08,36.28-54.09,16.8-79.27-32.68-42.24-123-52.73-145.89-98.06-12.58-24.95.34-52.75,18.61-75.89,39.2-49.64,104.91-93.19,108.37-149.93,2.37-39-29.21-78-78.05-96.44-51.19-19.33-122.18-16.9-160,15.1C810.76,118.29,742.42,131,683.84,129.27Z"
     transform="translate(-82.53 -34.2)"
     fill="#4a86ff"
     opacity="0.1"
     id="path6015" />
  <ellipse
     cx="443.23126"
     cy="602.57117"
     rx="290.75"
     ry="29.32"
     fill="#4a86ff"
     opacity="0.1"
     id="ellipse6017" />
  <path
     d="m 177.25125,599.3912 c 0,0 -12.9,-73.09 -60.78,-109.31 -20.089998,-15.2 -34.789998,-35.87 -41.209998,-59.41 a 179.25,179.25 0 0 1 -5.78,-34.1"
     fill="none"
     stroke="#535461"
     stroke-miterlimit="10"
     stroke-width="2"
     id="path6019"
     inkscape:connector-curvature="0" />
  <path
     d="m 39.461252,373.5712 c 4,7.83 30.73,23.68 30.73,23.68 0,0 3.36,-29.61 -0.67,-37.45 -4.03,-7.84 -14,-11.11 -22.32,-7.31 -8.32,3.8 -11.77,13.24 -7.74,21.08 z"
     fill="#4a86ff"
     id="path6021"
     inkscape:connector-curvature="0" />
  <path
     d="m 36.911252,428.3612 c 7.9,4.51 39.44,4.11 39.44,4.11 0,0 -14.23,-26.58 -22.1,-31.09 -7.87,-4.51 -18.16,-2.13 -22.94,5.32 -4.78,7.45 -2.29,17.15 5.6,21.66 z"
     fill="#4a86ff"
     id="path6023"
     inkscape:connector-curvature="0" />
  <path
     d="m 76.121252,502.0812 c 9.22,0.13 36.229998,-15.25 36.229998,-15.25 0,0 -26.489998,-16.16 -35.719998,-16.3 -9.23,-0.14 -16.82,6.82 -17,15.53 -0.18,8.71 7.26,15.86 16.49,16.02 z"
     fill="#4a86ff"
     id="path6025"
     inkscape:connector-curvature="0" />
  <path
     d="m 119.08125,551.5112 c 9.06,1.61 38.44,-9.25 38.44,-9.25 0,0 -23.22,-20.18 -32.27,-21.76 -9.05,-1.58 -17.8,4 -19.5,12.6 -1.7,8.6 4.26,16.81 13.33,18.41 z"
     fill="#4a86ff"
     id="path6027"
     inkscape:connector-curvature="0" />
  <path
     d="m 108.69125,419.5312 c -3.15,8.19 -27.999998,26.55 -27.999998,26.55 0,0 -6.58,-29.12 -3.43,-37.31 3.15,-8.19 12.74,-12.42 21.41,-9.45 8.669998,2.97 13.169998,12.03 10.019998,20.21 z"
     fill="#4a86ff"
     id="path6029"
     inkscape:connector-curvature="0" />
  <path
     d="m 158.16125,477.9712 c -5.6,6.93 -35.12,17.43 -35.12,17.43 0,0 3,-29.65 8.56,-36.57 a 17.38,17.38 0 0 1 23.42,-3 15.2,15.2 0 0 1 3.14,22.14 z"
     fill="#4a86ff"
     id="path6031"
     inkscape:connector-curvature="0" />
  <path
     d="m 197.98125,541.0012 c -4.28,7.72 -31.49,22.78 -31.49,22.78 0,0 -2.39,-29.69 1.89,-37.41 4.28,-7.72 14.37,-10.7 22.55,-6.66 8.18,4.04 11.32,13.57 7.05,21.29 z"
     fill="#4a86ff"
     id="path6033"
     inkscape:connector-curvature="0" />
  <path
     d="m 39.461252,373.5712 c 4,7.83 30.73,23.68 30.73,23.68 0,0 3.36,-29.61 -0.67,-37.45 -4.03,-7.84 -14,-11.11 -22.32,-7.31 -8.32,3.8 -11.77,13.24 -7.74,21.08 z"
     opacity="0.25"
     id="path6035"
     inkscape:connector-curvature="0" />
  <path
     d="m 36.911252,428.3612 c 7.9,4.51 39.44,4.11 39.44,4.11 0,0 -14.23,-26.58 -22.1,-31.09 -7.87,-4.51 -18.16,-2.13 -22.94,5.32 -4.78,7.45 -2.29,17.15 5.6,21.66 z"
     opacity="0.25"
     id="path6037"
     inkscape:connector-curvature="0" />
  <path
     d="m 76.121252,502.0812 c 9.22,0.13 36.229998,-15.25 36.229998,-15.25 0,0 -26.489998,-16.16 -35.719998,-16.3 -9.23,-0.14 -16.82,6.82 -17,15.53 -0.18,8.71 7.26,15.86 16.49,16.02 z"
     opacity="0.25"
     id="path6039"
     inkscape:connector-curvature="0" />
  <path
     d="m 119.08125,551.5112 c 9.06,1.61 38.44,-9.25 38.44,-9.25 0,0 -23.22,-20.18 -32.27,-21.76 -9.05,-1.58 -17.8,4 -19.5,12.6 -1.7,8.6 4.26,16.81 13.33,18.41 z"
     opacity="0.25"
     id="path6041"
     inkscape:connector-curvature="0" />
  <path
     d="m 108.69125,419.5312 c -3.15,8.19 -27.999998,26.55 -27.999998,26.55 0,0 -6.58,-29.12 -3.43,-37.31 3.15,-8.19 12.74,-12.42 21.41,-9.45 8.669998,2.97 13.169998,12.03 10.019998,20.21 z"
     opacity="0.25"
     id="path6043"
     inkscape:connector-curvature="0" />
  <path
     d="m 158.16125,477.9712 c -5.6,6.93 -35.12,17.43 -35.12,17.43 0,0 3,-29.65 8.56,-36.57 a 17.38,17.38 0 0 1 23.42,-3 15.2,15.2 0 0 1 3.14,22.14 z"
     opacity="0.25"
     id="path6045"
     inkscape:connector-curvature="0" />
  <path
     d="m 197.98125,541.0012 c -4.28,7.72 -31.49,22.78 -31.49,22.78 0,0 -2.39,-29.69 1.89,-37.41 4.28,-7.72 14.37,-10.7 22.55,-6.66 8.18,4.04 11.32,13.57 7.05,21.29 z"
     opacity="0.25"
     id="path6047"
     inkscape:connector-curvature="0" />
  <path
     d="m 175.63125,597.4712 c 0,0 19.57,-71.76 -8.65,-123.2 -11.84,-21.58 -16.41,-46.1 -12.17,-70.08 a 180,180 0 0 1 9.35,-33.38"
     fill="none"
     stroke="#535461"
     stroke-miterlimit="10"
     stroke-width="2"
     id="path6049"
     inkscape:connector-curvature="0" />
  <path
     d="m 146.58125,338.3012 c 0.32,8.7 17.93,33.41 17.93,33.41 0,0 15.78,-25.79 15.46,-34.5 -0.32,-8.71 -8.05,-15.52 -17.27,-15.22 -9.22,0.3 -16.45,7.6 -16.12,16.31 z"
     fill="#4a86ff"
     id="path6051"
     inkscape:connector-curvature="0" />
  <path
     d="m 120.74125,387.4212 c 5.28,7.14 34.28,18.84 34.28,18.84 0,0 -1.6,-29.74 -6.88,-36.89 a 17.35,17.35 0 0 0 -23.26,-3.91 15.23,15.23 0 0 0 -4.14,21.96 z"
     fill="#4a86ff"
     id="path6053"
     inkscape:connector-curvature="0" />
  <path
     d="m 124.94125,469.7912 c 8.38,3.65 39.68,-0.07 39.68,-0.07 0,0 -17.29,-24.92 -25.67,-28.57 -8.38,-3.65 -18.3,-0.2 -22.17,7.71 -3.87,7.91 -0.21,17.28 8.16,20.93 z"
     fill="#4a86ff"
     id="path6055"
     inkscape:connector-curvature="0" />
  <path
     d="m 142.99125,531.4412 c 7.61,4.94 39.12,6.25 39.12,6.25 0,0 -12.58,-27.31 -20.18,-32.24 a 17.33,17.33 0 0 0 -23.23,4 15.23,15.23 0 0 0 4.29,21.99 z"
     fill="#4a86ff"
     id="path6057"
     inkscape:connector-curvature="0" />
  <path
     d="m 190.15125,406.8112 c -6.4,6.28 -37,13.57 -37,13.57 0,0 6.49,-29.15 12.88,-35.43 a 17.42,17.42 0 0 1 23.63,-0.44 15.16,15.16 0 0 1 0.49,22.3 z"
     fill="#4a86ff"
     id="path6059"
     inkscape:connector-curvature="0" />
  <path
     d="m 210.25125,479.1612 c -8.09,4.19 -39.58,2.5 -39.58,2.5 0,0 15.43,-26 23.52,-30.16 8.09,-4.16 18.25,-1.39 22.68,6.25 4.43,7.64 1.51,17.22 -6.62,21.41 z"
     fill="#4a86ff"
     id="path6061"
     inkscape:connector-curvature="0" />
  <path
     d="m 219.64125,552.0212 c -7.23,5.42 -38.57,8.78 -38.57,8.78 0,0 10.56,-28.07 17.79,-33.49 a 17.38,17.38 0 0 1 23.47,2.55 15.19,15.19 0 0 1 -2.69,22.16 z"
     fill="#4a86ff"
     id="path6063"
     inkscape:connector-curvature="0" />
  <circle
     cx="697.08124"
     cy="136.35121"
     r="0.36000001"
     fill="#e6e8ec"
     id="circle6193" />
  <path
     d="m 507.33125,14.671201 -261.51,169.659999 170.66,307.8 a 11.91,11.91 0 0 0 7.6,5.8 l 154.63,37.72 a 11.92,11.92 0 0 0 13.54,-6.41 l 76.7,-159.35 84.06,-112.37 -199.48,-235.999999 a 35.35,35.35 0 0 0 -46.2,-6.85 z"
     fill="#dcdfed"
     id="path6197"
     inkscape:connector-curvature="0" />
  <path
     d="m 755.67125,258.8512 -0.74,1 -49.24,65.83 -0.89,1.19 -33.19,44.37 -65.6,136.31 -1.84,3.81 -9.26,19.23 a 11.92,11.92 0 0 1 -13.56,6.41 l -154.63,-37.74 a 11.89,11.89 0 0 1 -7.6,-5.8 l -14.87,-26.77 -2.67,-4.82 -107.33,-193.66 -0.92,-1.65 -44.86,-80.9 5.42,-3.52 41.09,-26.65 0.95,-0.62 86.53,-56.139999 5.46,-3.54 122.05,-79.19 a 35.34,35.34 0 0 1 46.22,6.84 l 91,107.699999 4,4.8 66.05,78.14 0.36,0.43 33.21,39.28 4.18,4.95 z"
     opacity="0.1"
     id="path6199"
     inkscape:connector-curvature="0" />
  <path
     d="m 715.04125,212.5812 -8.06,56 -2.43,16.9 -1.39,36 -0.11,2.81 -7.23,188.1 a 11.93,11.93 0 0 1 -14.51,11.17 l -77.94,-17.4 -0.84,-0.19 -199.89,-44.61 -3.67,-0.82 -109.89,-24.54 2.52,-169.12 0.08,-5.65 0.76,-51.19 0.84,-56.5 86.53,-56.139999 5.46,-3.54 c 80.26,8.229999 187,24.059999 259.31,35.349999 l 4,4.8 66,78.14 z"
     opacity="0.1"
     id="path6201"
     inkscape:connector-curvature="0" />
  <path
     d="m 724.17125,146.1812 -9.49,66 -8.7,60.44 -2.43,16.86 -1.39,36 -7.34,190.91 a 11.93,11.93 0 0 1 -14.51,11.17 l -78.78,-17.59 -199.89,-44.61 -113.56,-25.36 2.6,-174.77 0.76,-51.19 0.89,-59.88 0.91,-61.589999 c 18.78,-0.89 49.68,1.12 86.57,4.83 82.6,8.289999 195.2,25.059999 268.82,36.609999 45.08,7.07 75.54,12.17 75.54,12.17 z"
     fill="#4a86ff"
     id="path6203"
     inkscape:connector-curvature="0" />
  <path
     d="m 748.25125,251.8612 -42.27,20.73 -215.73,105.8 -198.81,-164.31 -40.19,-33.27 -5.42,3.52 44.86,80.9 -2.6,174.77 113.56,25.36 14.84,26.77 a 11.89,11.89 0 0 0 7.6,5.8 l 154.63,37.72 a 11.92,11.92 0 0 0 13.53,-6.41 l 9.26,-19.23 78.78,17.59 a 11.93,11.93 0 0 0 14.51,-11.17 l 7.34,-190.91 50.13,-67 0.14,-1.69 z"
     opacity="0.1"
     id="path6205"
     inkscape:connector-curvature="0" />
  <path
     d="m 245.82125,184.3312 -17.83,305.33 a 11.92,11.92 0 0 0 9.31,12.33 l 473.52,105.15 a 11.92,11.92 0 0 0 14.43,-10.67 l 27.75,-338.95 -262.75,128.87 z"
     fill="#dcdfed"
     id="path6207"
     inkscape:connector-curvature="0" />
  <path
     d="m 231.25125,496.6512 246,-151.77 a 18.06,18.06 0 0 1 23,3.6 l 220.18,256.79 c 0.8,0.92 1.19,0.26 0,0 l -489.18,-108.62 c -1.4,-0.31 -1.22,0.73 0,0 z"
     opacity="0.1"
     id="path6209"
     inkscape:connector-curvature="0" />
  <path
     d="m 233.01125,496.4012 243.46,-147.07 a 19.09,19.09 0 0 1 24.28,3.82 l 218.19,250.93 a 2.63,2.63 0 0 1 -2.55,4.29 l -482.59,-107.16 a 2.62,2.62 0 0 1 -0.79,-4.81 z"
     fill="#e3e5f1"
     id="path6211"
     inkscape:connector-curvature="0" />
  <path
     inkscape:connector-curvature="0"
     id="path6376"
     d="m 430.46679,154.08566 131.7737,27.1751 -20.22411,163.05319 -110.9207,-48.0281 z"
     style="vector-effect:non-scaling-stroke;fill:#4a87ff;fill-opacity:1;fill-rule:nonzero"
     sketchjs:tool="rectangle"
     sodipodi:nodetypes="ccccc" />
  <g
     id="g6384"
     transform="rotate(10.553485,-644.34051,2268.6297)"
     sketchjs:tool="fancyText">
    <g
       id="g6382"
       sketchjs:uid="1">
      <g
         id="g6380"
         sketchjs:uid="2">
        <path
           inkscape:connector-curvature="0"
           id="path6378"
           style="fill:#ffffff;paint-order:stroke fill markers"
           sketchjs:uid="3"
           d="m 130.84,100.584 v 0 0 Q 128.264,100.4 115.016,100.4 v 0 0 q -13.248,0 -15.456,0.736 v 0 0 q -9.752,32.016 -11.04,46.184 v 0 0 q 0,0.184 -4.508,0.184 v 0 0 q -4.508,0 -9.292,-0.552 v 0 0 Q 64.6,145.48 64.6,144.376 v 0 0 q 0,-7.36 13.064,-42.872 v 0 0 q -2.392,-2.024 -5.52,-8.372 v 0 0 q -3.128,-6.348 -3.128,-10.58 v 0 0 q 0,-0.184 15.272,-0.736 v 0 0 Q 99.376,38.024 101.4,35.632 v 0 0 q 0.736,-0.552 6.624,-1.748 v 0 0 q 5.888,-1.196 7.544,-1.196 v 0 L 115.2,30.296 v 0 q -0.368,-2.576 -0.828,-5.612 v 0 0 q -0.46,-3.036 -0.46,-3.956 v 0 0 q 0,-0.552 3.128,-2.208 v 0 0 q 9.016,-4.416 18.584,-4.416 v 0 0 q 1.84,10.856 4.876,27.692 v 0 0 q 3.036,16.836 11.868,51.428 v 0 0 q 8.832,34.592 16.928,48.208 v 0 l 1.288,2.208 v 0 q 0,0.92 -3.496,3.128 v 0 0 q -3.496,2.208 -9.2,4.232 v 0 0 q -5.704,2.024 -10.488,2.024 v 0 0 q -1.656,0 -8.004,-20.884 v 0 0 q -6.348,-20.884 -8.556,-31.556 z m -4.416,-18.952 v 0 0 q -6.256,-26.496 -6.808,-29.624 v 0 0 q -0.552,-3.128 -0.92,-3.128 v 0 0 q -0.368,0 -0.92,0.736 v 0 0 q -1.656,3.128 -6.164,15.088 v 0 0 q -4.508,11.96 -5.796,16.56 v 0 0 q 20.424,0 20.608,0.368 z" />
      </g>
    </g>
  </g>
  <path
     style="fill:none;stroke:#000000;stroke-width:1px;stroke-linecap:butt;stroke-linejoin:miter;stroke-opacity:1"
     d="m 1229.4378,710.68767 7.7813,-2.59375"
     id="path6447"
     inkscape:connector-curvature="0" />
</svg>
