<?xml version="1.0" encoding="UTF-8" standalone="no"?>
<svg
   xmlns:dc="http://purl.org/dc/elements/1.1/"
   xmlns:cc="http://creativecommons.org/ns#"
   xmlns:rdf="http://www.w3.org/1999/02/22-rdf-syntax-ns#"
   xmlns:svg="http://www.w3.org/2000/svg"
   xmlns="http://www.w3.org/2000/svg"
   xmlns:sodipodi="http://sodipodi.sourceforge.net/DTD/sodipodi-0.dtd"
   xmlns:inkscape="http://www.inkscape.org/namespaces/inkscape"
   id="a594ac37-6d44-4297-8862-1cbd9c01c0b7"
   data-name="Layer 1"
   width="1126.19355"
   height="855"
   viewBox="0 0 1126.19355 855"
   version="1.1"
   sodipodi:docname="intro-img.svg"
   inkscape:version="1.0beta2 (2b71d25, 2019-12-03)">
  <metadata
     id="metadata3642">
    <rdf:RDF>
      <cc:Work
         rdf:about="">
        <dc:format>image/svg+xml</dc:format>
        <dc:type
           rdf:resource="http://purl.org/dc/dcmitype/StillImage" />
        <dc:title>code review</dc:title>
      </cc:Work>
    </rdf:RDF>
  </metadata>
  <defs
     id="defs3640" />
  <sodipodi:namedview
     pagecolor="#ffffff"
     bordercolor="#666666"
     inkscape:document-rotation="0"
     borderopacity="1"
     objecttolerance="10"
     gridtolerance="10"
     guidetolerance="10"
     inkscape:pageopacity="0"
     inkscape:pageshadow="2"
     inkscape:window-width="1398"
     inkscape:window-height="744"
     id="namedview3638"
     showgrid="false"
     inkscape:zoom="0.46436761"
     inkscape:cx="187.76722"
     inkscape:cy="467.65781"
     inkscape:window-x="39"
     inkscape:window-y="26"
     inkscape:window-maximized="0"
     inkscape:current-layer="a594ac37-6d44-4297-8862-1cbd9c01c0b7" />
  <title
     id="title3537">code review</title>
  <path
     style="stroke-width:0.992917"
     inkscape:connector-curvature="0"
     d="M 544.86427,756.03446 C 302.46543,737.84828 13.39354,552.67983 28.11062,362.01862 42.8277,171.35741 322.79694,-6.1322392 565.19577,12.05391 807.5946,30.240059 947.12766,386.55378 932.41058,577.21497 917.6935,767.87615 787.2631,774.22064 544.86427,756.03446 Z"
     fill="#f2f2f2"
     id="path3539" />
  <polygon
     style="opacity:0.70418006"
     id="polygon3607-6"
     fill="#3f3d56"
     points="1035.152,628.862 1035.178,629.357 1028.776,751.653 1037.329,751.653 1038.355,688.485 1069.404,640.461 1038.433,683.736 1039.3,630.365 1075.391,564.338 1039.436,621.993 1039.826,597.995 1064.699,550.226 1039.929,591.645 1040.63,548.484 1067.265,510.453 1040.74,541.697 1041.178,462.556 1038.425,567.325 1038.651,563.003 1011.571,521.552 1038.217,571.3 1035.694,619.503 1035.619,618.223 1004.4,574.602 1035.524,622.743 1035.209,628.771 "
     transform="matrix(5.4590897,0,0,1.0620198,-5179.4322,-474.63316)" />
  <ellipse
     style="stroke-width:1.04603"
     cx="531.96332"
     cy="818.3576"
     rx="521.31848"
     ry="32.922615"
     fill="#3f3d56"
     id="ellipse3541" />
  <ellipse
     style="stroke-width:1.04603"
     cx="531.96332"
     cy="817.8266"
     rx="444.04794"
     ry="21.771406"
     opacity="0.1"
     id="ellipse3543" />
  <rect
     style="stroke-width:1.04603"
     x="151.79233"
     y="187.51784"
     width="774.76581"
     height="626.59167"
     fill="#3f3d56"
     id="rect3549" />
  <path
     style="stroke-width:1.04603"
     inkscape:connector-curvature="0"
     d="M 530.3608,273.14758 H 339.22678 a 2.319589,2.3910633 0 1 1 0,-4.78211 H 530.3608 a 2.319589,2.3910633 0 0 1 0,4.78211 z"
     fill="#f2f2f2"
     id="path3551" />
  <path
     style="stroke-width:1.04603"
     inkscape:connector-curvature="0"
     d="M 739.58759,299.44927 H 438.96905 a 2.3195906,2.391065 0 0 1 0,-4.78213 h 300.61854 a 2.3195906,2.391065 0 1 1 0,4.78213 z"
     fill="#f2f2f2"
     id="path3553" />
  <path
     style="stroke-width:1.04603"
     inkscape:connector-curvature="0"
     d="M 531.28864,325.75094 H 340.15462 a 2.319589,2.3910633 0 1 1 0,-4.78212 h 191.13402 a 2.319589,2.3910633 0 1 1 0,4.78212 z"
     fill="#f2f2f2"
     id="path3555" />
  <path
     style="stroke-width:1.04603"
     inkscape:connector-curvature="0"
     d="M 739.58759,326.22916 H 548.45358 a 2.3195906,2.391065 0 0 1 0,-4.78213 h 191.13401 a 2.3195906,2.391065 0 1 1 0,4.78213 z"
     fill="#f2f2f2"
     id="path3557" />
  <path
     style="stroke-width:1.04603"
     inkscape:connector-curvature="0"
     d="M 531.75255,352.05263 H 340.61854 a 2.3195906,2.391065 0 0 1 0,-4.78213 h 191.13401 a 2.3195906,2.391065 0 1 1 0,4.78213 z"
     fill="#f2f2f2"
     id="path3559" />
  <path
     style="stroke-width:1.04603"
     inkscape:connector-curvature="0"
     d="M 532.21647,378.3543 H 341.08245 a 2.319589,2.3910633 0 0 1 0,-4.78212 h 191.13402 a 2.319589,2.3910633 0 1 1 0,4.78212 z"
     fill="#f2f2f2"
     id="path3561" />
  <path
     style="stroke-width:1.04603"
     inkscape:connector-curvature="0"
     d="m 618.96905,273.6258 h -54.74228 a 2.3195906,2.391065 0 0 1 0,-4.78213 h 54.74228 a 2.3195906,2.391065 0 1 1 0,4.78213 z"
     fill="#f2f2f2"
     id="path3563" />
  <path
     style="stroke-width:1.04603"
     inkscape:connector-curvature="0"
     d="m 618.96905,352.05263 h -54.74228 a 2.3195906,2.391065 0 0 1 0,-4.78213 h 54.74228 a 2.3195906,2.391065 0 1 1 0,4.78213 z"
     fill="#f2f2f2"
     id="path3565" />
  <path
     style="stroke-width:1.04603"
     inkscape:connector-curvature="0"
     d="m 618.96905,377.87609 h -54.74228 a 2.319589,2.3910633 0 1 1 0,-4.78212 h 54.74228 a 2.319589,2.3910633 0 1 1 0,4.78212 z"
     fill="#f2f2f2"
     id="path3567" />
  <path
     style="stroke-width:1.04603"
     inkscape:connector-curvature="0"
     d="m 710.82471,377.87609 h -54.74227 a 2.319589,2.3910633 0 0 1 0,-4.78212 h 54.74227 a 2.319589,2.3910633 0 1 1 0,4.78212 z"
     fill="#f2f2f2"
     id="path3569" />
  <path
     style="stroke-width:1.04603"
     inkscape:connector-curvature="0"
     d="m 393.50513,299.44927 h -54.74226 a 2.3195906,2.391065 0 0 1 0,-4.78213 h 54.74226 a 2.3195906,2.391065 0 0 1 0,4.78213 z"
     fill="#f2f2f2"
     id="path3571" />
  <path
     style="stroke-width:1.04603"
     inkscape:connector-curvature="0"
     d="M 530.59276,660.49959 H 339.45874 a 2.319589,2.3910633 0 0 1 0,-4.78212 h 191.13402 a 2.319589,2.3910633 0 0 1 0,4.78212 z"
     fill="#f2f2f2"
     id="path3573" />
  <path
     style="stroke-width:1.04603"
     inkscape:connector-curvature="0"
     d="M 529.66493,713.10296 H 338.53091 a 2.3195906,2.391065 0 1 1 0,-4.78213 h 191.13402 a 2.3195906,2.391065 0 0 1 0,4.78213 z"
     fill="#f2f2f2"
     id="path3575" />
  <path
     style="stroke-width:1.04603"
     inkscape:connector-curvature="0"
     d="M 530.12884,739.40463 H 338.99483 a 2.319589,2.3910633 0 1 1 0,-4.78212 h 191.13401 a 2.319589,2.3910633 0 1 1 0,4.78212 z"
     fill="#f2f2f2"
     id="path3577" />
  <path
     style="stroke-width:1.04603"
     inkscape:connector-curvature="0"
     d="m 611.77832,713.58117 h -54.74227 a 2.319589,2.3910633 0 0 1 0,-4.78212 h 54.74227 a 2.319589,2.3910633 0 0 1 0,4.78212 z"
     fill="#f2f2f2"
     id="path3579" />
  <path
     style="stroke-width:1.04603"
     inkscape:connector-curvature="0"
     d="m 611.77832,739.40463 h -54.74227 a 2.3195858,2.39106 0 0 1 0,-4.78212 h 54.74227 a 2.3195858,2.39106 0 1 1 0,4.78212 z"
     fill="#f2f2f2"
     id="path3581" />
  <path
     style="stroke-width:1.04603"
     inkscape:connector-curvature="0"
     d="m 703.63399,713.58117 h -54.74226 a 2.319589,2.3910633 0 1 1 0,-4.78212 h 54.74226 a 2.319589,2.3910633 0 0 1 0,4.78212 z"
     fill="#f2f2f2"
     id="path3583" />
  <path
     style="stroke-width:1.04603"
     inkscape:connector-curvature="0"
     d="M 739.81956,686.80128 H 439.20101 a 2.3195906,2.391065 0 0 1 0,-4.78213 h 300.61855 a 2.3195906,2.391065 0 0 1 0,4.78213 z"
     fill="#f2f2f2"
     id="path3585" />
  <path
     style="stroke-width:1.04603"
     inkscape:connector-curvature="0"
     d="m 393.73709,686.80128 h -54.74226 a 2.3195906,2.391065 0 0 1 0,-4.78213 h 54.74226 a 2.3195906,2.391065 0 0 1 0,4.78213 z"
     fill="#f2f2f2"
     id="path3587" />
  <path
     style="stroke-width:1.04603"
     inkscape:connector-curvature="0"
     d="M 739.81956,766.18452 H 439.20101 a 2.319589,2.3910633 0 1 1 0,-4.78211 h 300.61855 a 2.3195839,2.391058 0 0 1 0,4.78211 z"
     fill="#f2f2f2"
     id="path3589" />
  <path
     style="stroke-width:1.04603"
     inkscape:connector-curvature="0"
     d="m 393.73709,766.18452 h -54.74226 a 2.319589,2.3910633 0 1 1 0,-4.78211 h 54.74226 a 2.319589,2.3910633 0 1 1 0,4.78211 z"
     fill="#f2f2f2"
     id="path3591" />
  <polygon
     transform="matrix(1.0302737,0,0,1.0620198,-50.340705,15.470625)"
     points="519.06,543.42 535.27,527.21 480.786,472.725 535.72,417.79 519.06,401.13 447.014,472.275 "
     fill="#6c63ff"
     id="polygon3593"
     style="fill:#4a86ff;fill-opacity:1" />
  <polygon
     transform="matrix(1.0302737,0,0,1.0620198,-50.340705,15.470625)"
     points="625.327,543.42 609.117,527.21 663.602,472.725 608.667,417.79 625.327,401.13 697.373,472.275 "
     fill="#6c63ff"
     id="polygon3595"
     style="fill:#4a86ff;fill-opacity:1" />
  <ellipse
     ry="9.5581789"
     rx="9.2724628"
     cx="172.3978"
     cy="203.44814"
     fill="#6c63ff"
     id="circle3597"
     style="fill:#4a86ff;fill-opacity:1;stroke-width:1.04603" />
  <ellipse
     ry="9.5581789"
     rx="9.2724628"
     cx="197.12437"
     cy="203.44814"
     fill="#6c63ff"
     id="circle3599"
     style="fill:#4a86ff;fill-opacity:1;stroke-width:1.04603" />
  <ellipse
     ry="9.5581789"
     rx="9.2724628"
     cx="221.85092"
     cy="203.44814"
     fill="#6c63ff"
     id="circle3601"
     style="fill:#4a86ff;fill-opacity:1;stroke-width:1.04603" />
  <rect
     style="stroke-width:1.04603"
     x="151.79233"
     y="219.37845"
     width="774.76581"
     height="3.1860595"
     opacity="0.1"
     id="rect3603" />
  <path
     style="stroke-width:1.04603"
     inkscape:connector-curvature="0"
     d="m 1109.9468,660.59836 c 0,67.72615 -39.0585,91.3736 -87.2398,91.3736 -48.1812,0 -87.23979,-23.64745 -87.23979,-91.3736 0,-67.72615 87.23979,-153.88455 87.23979,-153.88455 0,0 87.2398,86.1584 87.2398,153.88455 z"
     fill="#f2f2f2"
     id="path3605" />
  <polygon
     transform="matrix(1.0302737,0,0,1.0620198,-50.340705,15.470625)"
     points="1037.329,751.653 1038.355,688.485 1069.404,640.461 1038.433,683.736 1039.3,630.365 1075.391,564.338 1039.436,621.993 1039.826,597.995 1064.699,550.226 1039.929,591.645 1040.63,548.484 1067.265,510.453 1040.74,541.697 1041.178,462.556 1038.425,567.325 1038.651,563.003 1011.571,521.552 1038.217,571.3 1035.694,619.503 1035.619,618.223 1004.4,574.602 1035.524,622.743 1035.209,628.771 1035.152,628.862 1035.178,629.357 1028.776,751.653 "
     fill="#3f3d56"
     id="polygon3607" />
</svg>
